<svg width="26" height="30" viewBox="0 0 26 30" fill="none" xmlns="http://www.w3.org/2000/svg">
<path fill-rule="evenodd" clip-rule="evenodd" d="M16.4549 0.134515C16.8817 0.372434 17.0911 0.870722 16.9626 1.3421L14.1411 11.6875H24.4375C24.8606 11.6875 25.2434 11.9385 25.412 12.3266C25.5806 12.7146 25.5029 13.1657 25.2143 13.475L10.3393 29.4125C10.0059 29.7697 9.4719 29.8535 9.04514 29.6156C8.61839 29.3776 8.4089 28.8794 8.53746 28.408L11.3589 18.0625H1.06252C0.639439 18.0625 0.256674 17.8115 0.0880544 17.4235C-0.0805651 17.0355 -0.00290099 16.5844 0.285777 16.2751L15.1608 0.337573C15.4942 -0.0196155 16.0282 -0.103404 16.4549 0.134515Z" fill="#262626"/>
</svg>
